<svg xmlns="http://www.w3.org/2000/svg" xmlns:xlink="http://www.w3.org/1999/xlink" viewBox="0 0 358.45 132.66"><defs><style>.cls-1{fill:#e09d86;}.cls-2{clip-path:url(#clip-path);}.cls-3{fill:#ffa4c0;}.cls-4{fill:#f4d0dd;}.cls-5{fill:#fff3f7;}</style><clipPath id="clip-path"><path class="cls-1" d="M55,0a55,55,0,1,0,55,55A55,55,0,0,0,55,0Zm0,71.65A16.67,16.67,0,1,1,71.65,55,16.66,16.66,0,0,1,55,71.65Z"/></clipPath></defs><title>Asset 1</title><g id="Layer_2" data-name="Layer 2"><g id="logo"><g id="Layer_3" data-name="Layer 3"><path class="cls-1" d="M55,0a55,55,0,1,0,55,55A55,55,0,0,0,55,0Zm0,71.65A16.67,16.67,0,1,1,71.65,55,16.66,16.66,0,0,1,55,71.65Z"/><g class="cls-2"><path class="cls-3" d="M6.42,35.86c.06,4.3,7.37,5.3,8.21,11C15,49,13.94,49.4,11.9,55c-2.3,6.3-4.11,11.3-2.74,16.43a16.44,16.44,0,0,0,5.47,8.21c6,4.81,10.29.89,16.43,5.48A28.76,28.76,0,0,1,39.28,96.1c1.15,2.66,1.21,3.94,2.73,5.47,2.75,2.78,7.37,3.46,11,2.74,6.82-1.37,6.24-7.11,13.69-11C69.3,92,70,92.4,85.82,90.62c11.93-1.34,12.88-1.72,13.69-2.74,4.1-5.13-6.19-12.77-5.47-27.38.46-9.44,5-11.32,5.47-24.64.21-6,.31-10.59-2.74-13.69-4.28-4.35-9.49-.32-19.16-2.74C64.77,16.23,64.38,6.74,53,5.74c-.65,0-10.86-.8-16.43,5.48-3.74,4.21-1.68,7.4-5.48,11-4.34,4.07-8.46,1.23-16.43,5.48C12,29,6.36,32.06,6.42,35.86Z"/></g><rect class="cls-4" x="25.83" y="32.49" width="3.33" height="6.66" rx="0.42"/><rect class="cls-4" x="25.83" y="52.49" width="3.33" height="6.66" rx="0.42" transform="translate(25.39 -6.37) rotate(24.29)"/><rect class="cls-4" x="19.16" y="62.48" width="3.33" height="6.66" rx="0.42" transform="translate(86.64 44.99) rotate(90)"/><rect class="cls-4" x="34.16" y="67.48" width="3.33" height="6.66" rx="0.42" transform="translate(53.78 -6.49) rotate(39.91)"/><rect class="cls-4" x="37.49" y="77.48" width="3.33" height="6.66" rx="0.42" transform="translate(123.44 49.83) rotate(95.67)"/><rect class="cls-4" x="50.82" y="74.15" width="3.33" height="6.66" rx="0.42" transform="translate(102.22 -1.8) rotate(66.22)"/><rect class="cls-4" x="50.82" y="84.14" width="3.33" height="6.66" rx="0.42" transform="translate(151.45 112.22) rotate(135)"/><rect class="cls-4" x="19.16" y="42.49" width="3.33" height="6.66" rx="0.42" transform="translate(-27.68 32.4) rotate(-50.09)"/><rect class="cls-4" x="39.16" y="35.82" width="3.33" height="6.66" rx="0.42" transform="translate(73.16 -7.25) rotate(81.06)"/><rect class="cls-4" x="35.82" y="22.49" width="3.33" height="6.66" rx="0.42" transform="translate(80.8 11.81) rotate(127.51)"/><rect class="cls-4" x="45.82" y="12.5" width="3.33" height="6.66" rx="0.42" transform="translate(25.1 -28.94) rotate(45)"/><rect class="cls-4" x="49.15" y="22.49" width="3.33" height="6.66" rx="0.42" transform="translate(68.44 -28.39) rotate(81.06)"/><rect class="cls-4" x="65.81" y="29.16" width="3.33" height="6.66" rx="0.42" transform="translate(13.61 -19.54) rotate(18.29)"/><rect class="cls-4" x="79.14" y="42.49" width="3.33" height="6.66" rx="0.42" transform="translate(-9.52 24.12) rotate(-16.04)"/><rect class="cls-4" x="75.81" y="55.82" width="3.33" height="6.66" rx="0.42" transform="translate(-19.13 72.11) rotate(-45)"/><rect class="cls-4" x="75.81" y="69.15" width="3.33" height="6.66" rx="0.42" transform="translate(79.35 -33.6) rotate(47.92)"/><rect class="cls-4" x="65.81" y="75.81" width="3.33" height="6.66" rx="0.42" transform="translate(-16.88 18.3) rotate(-13.75)"/><rect class="cls-4" x="82.48" y="75.81" width="3.33" height="6.66" rx="0.42" transform="translate(50.85 -31.47) rotate(30)"/><rect class="cls-4" x="89.14" y="39.16" width="3.33" height="6.66" rx="0.42" transform="translate(-0.05 84.88) rotate(-50.09)"/><rect class="cls-4" x="79.14" y="25.83" width="3.33" height="6.66" rx="0.42" transform="translate(122.61 -45.9) rotate(99.27)"/><rect class="cls-4" x="62.48" y="19.16" width="3.33" height="6.66" rx="0.42" transform="translate(101.5 -34.31) rotate(104)"/></g><path class="cls-5" d="M15.59,111.57a20.1,20.1,0,0,1-7.48-5.08l5.56-7.38q5.57,5.17,10.45,5.17a9.21,9.21,0,0,0,4.17-.81A2.62,2.62,0,0,0,29.87,101a3.19,3.19,0,0,0-1.82-2.93A21,21,0,0,0,24,96.42c-1.5-.44-2.5-.73-3-.86a16.22,16.22,0,0,1-8.15-5.13,12.24,12.24,0,0,1-2.69-7.81,13.35,13.35,0,0,1,1.78-6.56,13.59,13.59,0,0,1,5.51-5.28,19.1,19.1,0,0,1,9.3-2.06,32.09,32.09,0,0,1,8.81,1.06,22.93,22.93,0,0,1,7,3.45l-5.08,7.86a18.55,18.55,0,0,0-4.26-2.54,11,11,0,0,0-4.27-1,6.63,6.63,0,0,0-3.74,1,2.76,2.76,0,0,0-1.44,2.3,3.09,3.09,0,0,0,1.68,3,26.2,26.2,0,0,0,5.51,2.06c.39.13.78.26,1.2.38l1.3.39q9.87,3.25,9.87,11.88a14.06,14.06,0,0,1-2,7.38,14.53,14.53,0,0,1-6.09,5.42,21.85,21.85,0,0,1-9.92,2.06A25.65,25.65,0,0,1,15.59,111.57Z"/><path class="cls-5" d="M93.9,71.31a19.28,19.28,0,0,1,7.23,8,26.46,26.46,0,0,1,2.64,12.17,23.31,23.31,0,0,1-2.92,11.93A19.21,19.21,0,0,1,92.7,111a26.08,26.08,0,0,1-11.93,2.64,20.35,20.35,0,0,1-7.15-1.3,15.09,15.09,0,0,1-5.79-3.69v24H54.5v-63H66l1.16,5q7.66-6.14,16.29-6.14A19.84,19.84,0,0,1,93.9,71.31ZM86.61,99.88a10.71,10.71,0,0,0,3.55-8.25A11.66,11.66,0,0,0,87,83.15,10.58,10.58,0,0,0,79,79.84a13.13,13.13,0,0,0-6.66,1.58,11.94,11.94,0,0,0-4.46,4.75V96.42a9.38,9.38,0,0,0,3.79,4.89,11.16,11.16,0,0,0,6.37,1.82A12.16,12.16,0,0,0,86.61,99.88Z"/><path class="cls-5" d="M132.19,74.19A25.87,25.87,0,0,1,138.37,70a12.82,12.82,0,0,1,5-1.49L142.69,82a11.06,11.06,0,0,0-1.63-.1A12.28,12.28,0,0,0,134,84a13.94,13.94,0,0,0-4.69,5.42,15.08,15.08,0,0,0-1.63,6.76v16.39H114.31V70.64h12.08l1.06,9.59A20.76,20.76,0,0,1,132.19,74.19Z"/><path class="cls-5" d="M155.58,50.94a7.58,7.58,0,0,1,5.13-2,7.28,7.28,0,0,1,5,2,6.24,6.24,0,0,1,2.2,4.84,6.1,6.1,0,0,1-2.2,4.8,7.37,7.37,0,0,1-5,1.91,7.67,7.67,0,0,1-5.13-1.91,6.05,6.05,0,0,1-2.25-4.8A6.19,6.19,0,0,1,155.58,50.94ZM167,70.64v41.89H153.61V70.64Z"/><path class="cls-5" d="M219.89,72.17a11.88,11.88,0,0,1,4.08,9v31.35H210.55V86.17Q210.27,80,204.41,80A8.45,8.45,0,0,0,197,84.35q-2.78,4.31-2.78,11.12v17.06H180.83V70.64H193l1,6.71a16.32,16.32,0,0,1,6.37-6.42,19.22,19.22,0,0,1,9.63-2.3A14.37,14.37,0,0,1,219.89,72.17Z"/><path class="cls-5" d="M254.93,95.08l-3.74,2.78v14.67H237.77V36.9h13.42V84.25l19.94-14.66,8.14,7.19L264.42,88l16.39,24.54H265.18Z"/><path class="cls-5" d="M303.52,36.9v75.63H290.1V36.9Z"/><path class="cls-5" d="M348.83,95.88l9,7.38A36,36,0,0,1,352,108.6a25.32,25.32,0,0,1-6.47,3.55,27.62,27.62,0,0,1-13.09,1.69,19.15,19.15,0,0,1-10.4-4.73A24.22,24.22,0,0,1,315.43,99a21.05,21.05,0,0,1-.79-11.73,23.09,23.09,0,0,1,5.49-10.68,25.17,25.17,0,0,1,10.44-7q8.48-3,15.72,0t12.16,11.62l-25.57,19.56a10.44,10.44,0,0,0,9,.52A15.32,15.32,0,0,0,348.83,95.88ZM327.37,85.15a12.05,12.05,0,0,0,.25,8.66l.3.81,15.22-12.07q-3.9-4.92-10-2.72A9.08,9.08,0,0,0,327.37,85.15Z"/></g></g></svg>